<svg xmlns="http://www.w3.org/2000/svg" viewBox="0 0 576.43 445.61"><defs><pattern id="Unnamed_Pattern_9" width="8.5" height="8.5" data-name="Unnamed Pattern 9" patternTransform="matrix(.89 0 0 -.89 105.34 12170.75)" patternUnits="userSpaceOnUse" viewBox="0 0 8.5 8.5"><path d="M0 0h8.5v8.5H0z" class="cls-1"/><g class="cls-2"><path d="M53.79 2.77L5.74-45.29" class="cls-3"/><path d="M45.29 2.77L-2.77-45.29" class="cls-3"/><path d="M36.78 2.77l-48.05-48.06" class="cls-3"/><path d="M28.28 2.77l-48.06-48.06" class="cls-3"/><path d="M19.77 2.77l-48.05-48.06" class="cls-3"/><path d="M11.27 2.77l-48.05-48.06" class="cls-3"/><path d="M2.77 2.77l-48.06-48.06" class="cls-3"/><path d="M53.79 11.27L5.74-36.78" class="cls-3"/><path d="M45.29 11.27L-2.77-36.78" class="cls-3"/><path d="M36.78 11.27l-48.05-48.05" class="cls-3"/><path d="M28.28 11.27l-48.06-48.05" class="cls-3"/><path d="M19.77 11.27l-48.05-48.05" class="cls-3"/><path d="M11.27 11.27l-48.05-48.05" class="cls-3"/><path d="M2.77 11.27l-48.06-48.05" class="cls-3"/><path d="M53.79 19.77L5.74-28.28" class="cls-3"/><path d="M45.29 19.77L-2.77-28.28" class="cls-3"/><path d="M36.78 19.77l-48.05-48.05" class="cls-3"/><path d="M28.28 19.77l-48.06-48.05" class="cls-3"/><path d="M19.77 19.77l-48.05-48.05" class="cls-3"/><path d="M11.27 19.77l-48.05-48.05" class="cls-3"/><path d="M2.77 19.77l-48.06-48.05" class="cls-3"/><path d="M53.79 28.28L5.74-19.78" class="cls-3"/><path d="M45.29 28.28L-2.77-19.78" class="cls-3"/><path d="M36.78 28.28l-48.05-48.06" class="cls-3"/><path d="M28.28 28.28l-48.06-48.06" class="cls-3"/><path d="M19.77 28.28l-48.05-48.06" class="cls-3"/><path d="M11.27 28.28l-48.05-48.06" class="cls-3"/><path d="M2.77 28.28l-48.06-48.06" class="cls-3"/><path d="M53.79 36.78L5.74-11.27" class="cls-3"/><path d="M45.29 36.78L-2.77-11.27" class="cls-3"/><path d="M36.78 36.78l-48.05-48.05" class="cls-3"/><path d="M28.28 36.78l-48.06-48.05" class="cls-3"/><path d="M19.77 36.78l-48.05-48.05" class="cls-3"/><path d="M11.27 36.78l-48.05-48.05" class="cls-3"/><path d="M2.77 36.78l-48.06-48.05" class="cls-3"/><path d="M53.79 45.29L5.74-2.77" class="cls-3"/><path d="M45.29 45.29L-2.77-2.77" class="cls-3"/><path d="M36.78 45.29L-11.27-2.77" class="cls-3"/><path d="M28.28 45.29L-19.78-2.77" class="cls-3"/><path d="M19.77 45.29L-28.28-2.77" class="cls-3"/><path d="M11.27 45.29L-36.78-2.77" class="cls-3"/><path d="M2.77 45.29L-45.29-2.77" class="cls-3"/><path d="M53.79 53.79L5.74 5.74" class="cls-3"/><path d="M45.29 53.79L-2.77 5.74" class="cls-3"/><path d="M36.78 53.79L-11.27 5.74" class="cls-3"/><path d="M28.28 53.79L-19.78 5.74" class="cls-3"/><path d="M19.77 53.79L-28.28 5.74" class="cls-3"/><path d="M11.27 53.79L-36.78 5.74" class="cls-3"/><path d="M2.77 53.79L-45.29 5.74" class="cls-3"/></g></pattern><pattern id="Unnamed_Pattern_9-7" width="8.5" height="8.5" data-name="Unnamed Pattern 9" patternTransform="matrix(.89 0 0 -.89 97.5 12175.6)" patternUnits="userSpaceOnUse" viewBox="0 0 8.5 8.5"><path d="M0 0h8.5v8.5H0z" class="cls-1"/><g class="cls-2"><path d="M53.79 2.77L5.74-45.29" class="cls-3"/><path d="M45.29 2.77L-2.77-45.29" class="cls-3"/><path d="M36.78 2.77l-48.05-48.06" class="cls-3"/><path d="M28.28 2.77l-48.06-48.06" class="cls-3"/><path d="M19.77 2.77l-48.05-48.06" class="cls-3"/><path d="M11.27 2.77l-48.05-48.06" class="cls-3"/><path d="M2.77 2.77l-48.06-48.06" class="cls-3"/><path d="M53.79 11.27L5.74-36.78" class="cls-3"/><path d="M45.29 11.27L-2.77-36.78" class="cls-3"/><path d="M36.78 11.27l-48.05-48.05" class="cls-3"/><path d="M28.28 11.27l-48.06-48.05" class="cls-3"/><path d="M19.77 11.27l-48.05-48.05" class="cls-3"/><path d="M11.27 11.27l-48.05-48.05" class="cls-3"/><path d="M2.77 11.27l-48.06-48.05" class="cls-3"/><path d="M53.79 19.77L5.74-28.28" class="cls-3"/><path d="M45.29 19.77L-2.77-28.28" class="cls-3"/><path d="M36.78 19.77l-48.05-48.05" class="cls-3"/><path d="M28.28 19.77l-48.06-48.05" class="cls-3"/><path d="M19.77 19.77l-48.05-48.05" class="cls-3"/><path d="M11.27 19.77l-48.05-48.05" class="cls-3"/><path d="M2.77 19.77l-48.06-48.05" class="cls-3"/><path d="M53.79 28.28L5.74-19.78" class="cls-3"/><path d="M45.29 28.28L-2.77-19.78" class="cls-3"/><path d="M36.78 28.28l-48.05-48.06" class="cls-3"/><path d="M28.28 28.28l-48.06-48.06" class="cls-3"/><path d="M19.77 28.28l-48.05-48.06" class="cls-3"/><path d="M11.27 28.28l-48.05-48.06" class="cls-3"/><path d="M2.77 28.28l-48.06-48.06" class="cls-3"/><path d="M53.79 36.78L5.74-11.27" class="cls-3"/><path d="M45.29 36.78L-2.77-11.27" class="cls-3"/><path d="M36.78 36.78l-48.05-48.05" class="cls-3"/><path d="M28.28 36.78l-48.06-48.05" class="cls-3"/><path d="M19.77 36.78l-48.05-48.05" class="cls-3"/><path d="M11.27 36.78l-48.05-48.05" class="cls-3"/><path d="M2.77 36.78l-48.06-48.05" class="cls-3"/><path d="M53.79 45.29L5.74-2.77" class="cls-3"/><path d="M45.29 45.29L-2.77-2.77" class="cls-3"/><path d="M36.78 45.29L-11.27-2.77" class="cls-3"/><path d="M28.28 45.29L-19.78-2.77" class="cls-3"/><path d="M19.77 45.29L-28.28-2.77" class="cls-3"/><path d="M11.27 45.29L-36.78-2.77" class="cls-3"/><path d="M2.77 45.29L-45.29-2.77" class="cls-3"/><path d="M53.79 53.79L5.74 5.74" class="cls-3"/><path d="M45.29 53.79L-2.77 5.74" class="cls-3"/><path d="M36.78 53.79L-11.27 5.74" class="cls-3"/><path d="M28.28 53.79L-19.78 5.74" class="cls-3"/><path d="M19.77 53.79L-28.28 5.74" class="cls-3"/><path d="M11.27 53.79L-36.78 5.74" class="cls-3"/><path d="M2.77 53.79L-45.29 5.74" class="cls-3"/></g></pattern><pattern id="Unnamed_Pattern_9-9" width="8.5" height="8.5" data-name="Unnamed Pattern 9" patternTransform="matrix(.95 0 0 -.89 110.65 12170.75)" patternUnits="userSpaceOnUse" viewBox="0 0 8.5 8.5"><path d="M0 0h8.5v8.5H0z" class="cls-1"/><g class="cls-2"><path d="M53.79 2.77L5.74-45.29" class="cls-3"/><path d="M45.29 2.77L-2.77-45.29" class="cls-3"/><path d="M36.78 2.77l-48.05-48.06" class="cls-3"/><path d="M28.28 2.77l-48.06-48.06" class="cls-3"/><path d="M19.77 2.77l-48.05-48.06" class="cls-3"/><path d="M11.27 2.77l-48.05-48.06" class="cls-3"/><path d="M2.77 2.77l-48.06-48.06" class="cls-3"/><path d="M53.79 11.27L5.74-36.78" class="cls-3"/><path d="M45.29 11.27L-2.77-36.78" class="cls-3"/><path d="M36.78 11.27l-48.05-48.05" class="cls-3"/><path d="M28.28 11.27l-48.06-48.05" class="cls-3"/><path d="M19.77 11.27l-48.05-48.05" class="cls-3"/><path d="M11.27 11.27l-48.05-48.05" class="cls-3"/><path d="M2.77 11.27l-48.06-48.05" class="cls-3"/><path d="M53.79 19.77L5.74-28.28" class="cls-3"/><path d="M45.29 19.77L-2.77-28.28" class="cls-3"/><path d="M36.78 19.77l-48.05-48.05" class="cls-3"/><path d="M28.28 19.77l-48.06-48.05" class="cls-3"/><path d="M19.77 19.77l-48.05-48.05" class="cls-3"/><path d="M11.27 19.77l-48.05-48.05" class="cls-3"/><path d="M2.77 19.77l-48.06-48.05" class="cls-3"/><path d="M53.79 28.28L5.74-19.78" class="cls-3"/><path d="M45.29 28.28L-2.77-19.78" class="cls-3"/><path d="M36.78 28.28l-48.05-48.06" class="cls-3"/><path d="M28.28 28.28l-48.06-48.06" class="cls-3"/><path d="M19.77 28.28l-48.05-48.06" class="cls-3"/><path d="M11.27 28.28l-48.05-48.06" class="cls-3"/><path d="M2.77 28.28l-48.06-48.06" class="cls-3"/><path d="M53.79 36.78L5.74-11.27" class="cls-3"/><path d="M45.29 36.78L-2.77-11.27" class="cls-3"/><path d="M36.78 36.78l-48.05-48.05" class="cls-3"/><path d="M28.28 36.78l-48.06-48.05" class="cls-3"/><path d="M19.77 36.78l-48.05-48.05" class="cls-3"/><path d="M11.27 36.78l-48.05-48.05" class="cls-3"/><path d="M2.77 36.78l-48.06-48.05" class="cls-3"/><path d="M53.79 45.29L5.74-2.77" class="cls-3"/><path d="M45.29 45.29L-2.77-2.77" class="cls-3"/><path d="M36.78 45.29L-11.27-2.77" class="cls-3"/><path d="M28.28 45.29L-19.78-2.77" class="cls-3"/><path d="M19.77 45.29L-28.28-2.77" class="cls-3"/><path d="M11.27 45.29L-36.78-2.77" class="cls-3"/><path d="M2.77 45.29L-45.29-2.77" class="cls-3"/><path d="M53.79 53.79L5.74 5.74" class="cls-3"/><path d="M45.29 53.79L-2.77 5.74" class="cls-3"/><path d="M36.78 53.79L-11.27 5.74" class="cls-3"/><path d="M28.28 53.79L-19.78 5.74" class="cls-3"/><path d="M19.77 53.79L-28.28 5.74" class="cls-3"/><path d="M11.27 53.79L-36.78 5.74" class="cls-3"/><path d="M2.77 53.79L-45.29 5.74" class="cls-3"/></g></pattern><clipPath id="clip-path"><path d="M0 0h8.5v8.5H0z" class="cls-1"/></clipPath><clipPath id="clip-path-2" transform="translate(7.85 -4.84)"><path d="M0 0h566.93v440.49H0z" class="cls-1"/></clipPath><style>.cls-1,.cls-3{fill:none}.cls-2{clip-path:url(#clip-path)}.cls-3{stroke:#16a3c1;stroke-width:.71px}.cls-12,.cls-3,.cls-6{stroke-miterlimit:10}.cls-6{fill:#e4f3f8;stroke:#1aa3c3}.cls-7{opacity:.25;fill:url(#Unnamed_Pattern_9)}.cls-10{font-size:8px;fill:#1ca3c2;font-family:CoFoSans-Medium,CoFoSans Medium;font-weight:500}.cls-12{fill:#f6f8e4;stroke:#d9e6b1;opacity:.5}</style></defs><g id="Слой_2" data-name="Слой 2"><g id="Слой_1-2" clip-path="url(#clip-path-2)" data-name="Слой 1"><path fill="#fff" stroke="#f2f2f2" stroke-miterlimit="10" stroke-width="2" d="M62.2 60.51c-.14-1.74-.35-18.21-.35-18.21l5.54-8-.54-27.14 60.52-2.33 1.48-3.81 12.44.32 8 3.21-4.05 7.32.69 12.94 12.48.7.22 12 14.6.53 22.07 4.17 26.18-.05-.83 24.9.41 44.39 38.79-.29 5.59 4.21v16.1l23.12.4.35 15.88 36-.49.94-12.1 7.82-6.28 38 36.79-4.8 5.25-18.69 1.56.94 27.46-7.53.21-.11 17.52-13.63 13.87-31.66-.46-14.51 14.4-31.09 13.26-5.42 55.93-5.12 6.06-7.32.61-.19 65.91-135.42.09.06-13.49H78.97v-98.23l45.23-.07-.23-98.88 33.75-.05.1-30.05h-39.18l-.13-76.17-17.3.41-.39-7-7.97.74-7.5-3.84z"/><path d="M222.12 171.1h32.73v28.46h-32.73z" class="cls-6"/><path d="M273.7 236.87h-23.83v8.73l-13.81-.06v-28.21h37.64v19.54z" class="cls-6"/><path d="M239.32 309.79l-11.9-1.04 4.51-51.62 11.91 1.04-4.52 51.62z" class="cls-7"/><path d="M307.45 162.28h19.03v43.06h-19.03z" class="cls-6"/><path d="M85.8 288.04h13.93V324H85.8z" class="cls-6"/><path d="M279.77 170.93v5.08h-11.48v17.06H291.31v-22.14h-11.54z" class="cls-7"/><path d="M73.54 12.13l.96 42.72 33.27.2-.8-43.72-33.43.8z" class="cls-6"/><path d="M128.53 324v-23.03h4.5v-5.32h9.86v4.92h11.63v-5.32h10.64v5.13h9.86v-5.52h10.44v5.52h11.43v-5.32h10.06v5.12h4.53v23.65l-82.95.17z" class="cls-6"/><path d="M217.92 269.28h-23.04v-5.34h-5.32v-11.66h4.93v-13.76h-5.32v-12.6h5.12v-11.66h-5.52V201.9h5.52v-13.53h-5.32v-11.9h5.12v-5.37h23.66l.17 98.18z" class="cls-6"/><path d="M188.18 49.52l.75 57.96 26.41-.16-.81-58.64-26.35.84z" class="cls-6"/><path d="M127.1 143.1l-.36-64.19h32.65v-3.92h4.78l.34 68.13z" class="cls-6" transform="translate(7.85 -4.84)"/><path d="M186.81 133.53l-.1-11.73 72.53-.24-.14 11.74-72.29.23z" class="cls-7"/><path fill="url(#Unnamed_Pattern_9-7)" d="M139.3 362.09c0-.36.49-10.34.49-10.34l73.21-1-.07 11.25z" opacity=".25" transform="translate(7.85 -4.84)"/><path fill="none" stroke="#1aa3c3" stroke-miterlimit="10" d="M193.63 49.35v5.2h-5.45"/><path d="M173.69 183.05v32.66h-6.17v6.01h-22.35v-6.46h-5.98v-6.37h-5.6v-17.94h5.74v-8.02l34.36.12z" class="cls-6"/><path d="M173.69 269v-32.66h-6.17v-6.01h-22.35v6.45h-5.98v6.38h-5.6v17.94h5.74v8.02l34.36-.12z" class="cls-6"/><text class="cls-10" transform="translate(88.58 35.46)">1</text><text class="cls-10" transform="translate(199.25 67.93)">3</text><text class="cls-10" transform="translate(150.54 110.6)">2</text><text class="cls-10" transform="translate(153.15 203.27)">4</text><text class="cls-10" transform="translate(203.56 222.27)">5</text><text fill="#1ca3c2" font-family="CoFoSans-Medium,CoFoSans Medium" font-size="10" font-weight="500" letter-spacing=".05em" transform="translate(145.86 254.47)">ИТЦ</text><text class="cls-10" transform="translate(235.79 187.09)">6</text><text class="cls-10" transform="translate(253.96 229.42)">8</text><text class="cls-10" transform="translate(314.04 187.09)">7</text><text class="cls-10" transform="translate(90.34 315.11)">9</text><text class="cls-10" transform="translate(166.05 315.11)">10</text><path d="M348.85 187.4l-.22 36.75a4.28 4.28 0 01-1.19 2.91L330 245.16a4.24 4.24 0 01-3.05 1.3h-32.24a4.25 4.25 0 00-3 1.23l-11 11a4.2 4.2 0 01-1.12.79l-25.82 12.72a4.25 4.25 0 00-2.36 3.53l-7.26 112a4.24 4.24 0 004.23 4.51h239.89a4.23 4.23 0 003.91-5.86l-93.06-225.22a4.24 4.24 0 00-3.89-2.62l-23-.13a4.24 4.24 0 00-3.45 6.74l4 5.5a4.25 4.25 0 01-.14 5.19l-4.87 5.94a4.23 4.23 0 01-3.34 1.55l-11.28-.14a4.24 4.24 0 00-4.3 4.21z" class="cls-12" transform="translate(7.85 -4.84)"/><path d="M530.25 158.41H426.11a4.23 4.23 0 00-3.91 5.86l93.06 225.21a4.24 4.24 0 003.89 2.62l11.68.13z" class="cls-12" transform="translate(7.85 -4.84)"/><path fill="#fff" d="M54.84 450.2V153.07H-7.6v-3.5h124.33V15.09h3.5v54.09H173v3.5h-52.77v76.89h52.44v-31.63h34.38v3.5h-30.88v28.13h392.17v3.5H407.11l121 294.41-3.24 1.34-121.54-295.75h-110.2v59.59h-76v76.46h-2.63l-41.73.34h-64.22v49.29h109.54v3.5H108.55v43.89h-3.5v-100.2h67.72V153.07H58.34V450.2zm121.43-164.26l37.4-.3v-76.48h76v-56.09h-113.4z" transform="translate(7.85 -4.84)"/><path fill="#ededed" d="M120 15.34v54.09h52.78v3H120v77.39h52.94v-31.63h33.86v3h-30.88v28.63h392.17v3H406.74l121 294.53-2.74 1.14-121.5-295.67H292.88v59.59h-76v76.46h-2.38l-41.5.33h-64.7V339h109.54v3H108.3v43.89h-3v-99.7H173V152.82H58.09V450h-3V152.82H-7.35v-3H117V15.34h3m56 270.85l37.9-.31v-76.47h76v-56.59H176v133.37M120.48 14.84h-4v134.48H-7.85v4h62.44v297.13h4V153.32h113.93v132.37H104.8v100.68h4v-43.89h109.54v-4H108.8v-48.79H173l41.47-.33h2.92v-76.45h76v-59.59h109.77l121.38 295.36.19.46.46-.19 2.78-1.14.46-.19-.19-.46-120.75-293.84h161.1v-4H176.42v-27.63h30.88v-4h-34.88v31.63h-51.94V72.93h52.78v-4h-52.78V14.84zm56 138.48h112.9v55.59h-76v76.48l-36.9.3V153.32z" transform="translate(7.85 -4.84)"/><path fill="url(#Unnamed_Pattern_9-9)" d="M188.67 79.05h15.1v28.46h-15.1z" opacity=".25"/><path fill="none" stroke="#1d1d1b" stroke-miterlimit="10" stroke-width=".5" d="M351.51 146.52v-20.11"/><circle cx="351.51" cy="146.47" r=".94" fill="#1d1d1b"/></g></g></svg>