<svg xmlns="http://www.w3.org/2000/svg" xmlns:xlink="http://www.w3.org/1999/xlink" id="Слой_1" x="0" y="0" version="1.1" viewBox="0 0 551.3 430.9" xml:space="preserve"><style>.st2,.st3{fill:#e4f3f8;stroke:#1aa3c3;stroke-miterlimit:10}.st3{fill:none;stroke:#3c3c3b}.st4{fill:#fff}.st5{fill:#e1e0e0}.st6{fill:#35a6c2}.st7{font-family:&apos;ArialMT&apos;}.st8{font-size:8px}.st9{opacity:.5;fill:#f6f8e4;stroke:#d9e6b1;stroke-miterlimit:10;enable-background:new}</style><g id="Слой_2_1_"><g id="Слой_1-2"><defs><path id="SVGID_1_" d="M-32.7 30.1h566.9v392.1H-32.7z"/></defs><clipPath id="SVGID_2_"><use overflow="visible" xlink:href="#SVGID_1_"/></clipPath><g clip-path="url(#SVGID_2_)"><path fill="#fff" stroke="#f2f2f2" stroke-miterlimit="10" stroke-width="2" d="M239.3 162.3c-.4-.6-.8-1.1-1.3-1.6l-10.6-10.3-39.7-40.6c-.4-.4-.8-.9-1.1-1.5l-15.4-31.6c-.3-.7-.8-1.3-1.4-1.8l-11-9.5a6 6 0 00-2.5-1.3l-28.8-6.2-.4-.1-26.2-7.8L69 41.7l-30.5-7.9c-2.6-.7-5.4.6-6.5 3.1l-8.8 18.5c-.1.2-.2.3-.3.5L5 86.1c-.4.6-.6 1.3-.8 2.1L1 109.9c0 .7 0 1.4.1 2.1l4.7 20.3c.4 1.9 1.8 3.4 3.7 4.1l14.7 5c1.6.6 2.9 1.8 3.5 3.4l5.5 15c.1.2.1.3.2.5l2.4 9.3c.2.7.2 1.5.1 2.3l-2.8 18.6-.3 1.2-8.9 23.7a5.6 5.6 0 001.8 6.4l9.3 7.4c.2.1.3.2.5.4l15.7 9.9.3.2 15.8 8.5c1 .5 1.8 1.4 2.3 2.4l2.5 4.8c.4.8.7 1.8.6 2.7l-.3 25.3c0 .8-.2 1.6-.5 2.3l-9.3 19.9c-1 2.1-.6 4.5.9 6.2l4.1 4.5c.2.2.4.4.5.7L83 339.2c.9 1.4 1.2 3.2.6 4.9l-8.1 24.5c-.9 2.6.3 5.5 2.8 6.8l1.3.7c.6.3 1.2.5 1.8.6l7.6 1.1c1.3.2 2.6-.1 3.7-.7l12.6-7.4c.8-.5 1.5-1.1 2-2l6.4-10.6c.5-.9 1.3-1.6 2.2-2.1l5.6-3c.5-.3 1.1-.5 1.7-.6l5.6-1c.6-.1 1.3-.3 1.8-.6l33.1-18.8 6.1-3.5c.2-.1.4-.3.6-.4l6.8-5.2c1-.8 1.7-1.8 2-3l18.8-66c.1-.4.3-.8.5-1.2l42.8-78.2c1.5-2.7 1.4-6-.3-8.6l-1.7-2.6z"/><path d="M88.2 78.4L87 53.2c0-.5-.4-.9-.9-1L40.7 43c-.5-.1-1 .2-1.3.7l-7.6 17.9c0 .1 0 .1-.1.2l-8.1 13.1c-.3.5-.2 1.2.3 1.5.2.1.3.2.5.2l62.6 3c.6 0 1.1-.4 1.2-1.1v-.1z" class="st2"/><path d="M97.6 88.1l-82.8-2.4c-.4 0-.8.2-1 .6l-3 5.4c-.1.1-.1.3-.1.4l-2.9 21.1v.4l4.4 17.2c.1.3.3.6.7.8l18.7 7.5c.3.1.5.4.6.6l5.9 15.3c.2.4.6.7 1 .7H99c.6 0 1.1-.5 1.1-1.1l-1.4-65.3c0-.7-.5-1.2-1.1-1.2z" class="st2"/><path d="M99.1 165.9h-55c-.6 0-1.1.5-1.1 1.2 0 .1 0 .2.1.3l1.2 3.4v.6l-3.1 18.4c0 .1 0 .1-.1.2l-9.9 26c-.2.4 0 .9.3 1.2l1.7 1.6c.2.2.5.3.8.3l66.1-.4c.6 0 1.1-.5 1.1-1.1l-.9-50.5c-.1-.8-.6-1.3-1.2-1.2z" class="st2"/><path d="M100.1 228.6l-49.9.4c-.6 0-1.1.5-1.1 1.1 0 .4.2.7.5.9L74 245.6c.2.1.3.2.4.4l5.2 8.6c.1.2.1.3.2.5l1.3 24c0 .6.5 1.1 1.1 1.1l17.2-.3c.6 0 1.1-.5 1.1-1.1l-.7-16.7c0-.6.5-1.1 1.1-1.2.6 0 1.1-.5 1.1-1.1l-.6-30.3c-.2-.4-.7-.9-1.3-.9z" class="st2"/><path d="M99.4 288.9l-21.8.9c-.4 0-.8.2-.9.6L69.3 305c-.2.4-.1 1 .2 1.3l5 4.8.2.2 16.8 25c.2.3.2.7.1 1l-6.1 16.3c-.2.4 0 .9.3 1.2l2.4 2c.4.3.5.9.3 1.4l-1.2 2.3c-.3.5-1 .7-1.5.5-.1 0-.1-.1-.2-.1l-1.1-1c-.5-.4-1.2-.3-1.6.2-.1.1-.1.2-.2.3l-3.8 10.2c-.2.6.1 1.2.6 1.4l2.4.9c.1 0 .2.1.4.1l9.7.3c.2 0 .4-.1.6-.2l11.1-6.8c.1-.1.3-.2.4-.4l7.8-12c0-.1.1-.1.1-.2l2.5-6.8c0-.1.1-.2.1-.4l.1-2.4c0-.3-.1-.6-.3-.8l-12.2-13.9a.9.9 0 01-.3-.7l-1.3-38.8c-.1-.5-.6-1-1.2-1z" class="st2"/><path d="M116 79.9l41.9 5.5c1 .1 1.9.8 2.3 1.8l9 24.2c.1.4.3.7.6 1L194 138c1.1 1.1 1 2.9-.1 4-.5.5-1.2.8-1.9.8l-78 1.4c-1.6 0-2.9-1.2-2.9-2.8l-1.4-55.7c-.1-3.1 2.4-5.8 5.5-5.9.2.1.5.1.8.1z" class="st2"/><path d="M112.3 153.7l97.7-1.8c.3 0 .6.1.8.3l15.4 15.7c.3.4.4.9.2 1.3l-16.9 29.9c-.2.3-.6.5-.9.6l-94.8 2.4c-.6 0-1.1-.5-1.1-1.1l-1.5-46.1c-.1-.6.4-1.2 1.1-1.2-.1 0-.1 0 0 0z" class="st2"/><path d="M113.5 212.1l87.2-1.8c.6 0 1.1.5 1.2 1.1 0 .2 0 .4-.2.6l-12.9 22.2c0 .1-.1.1-.1.2l-11.3 30c-.2.4-.6.7-1 .7l-61.3 1.1c-.6 0-1.1-.5-1.1-1.1l-1.6-51.8c.1-.7.5-1.2 1.1-1.2z" class="st2"/><path d="M115.1 275.9l58-.6c.6 0 1.1.5 1.1 1.1v.3l-6.7 25.7c0 .2-.1.3-.3.5l-8.6 9.6c-.1.1-.2.2-.4.3l-29.5 13.3c-.3.1-.6.1-.9 0l-9.3-4.1c-.2-.1-.4-.3-.6-.5l-3.3-6.7c-.1-.1-.1-.3-.1-.5l-.6-37.1c0-.8.5-1.3 1.2-1.3-.1 0 0 0 0 0z" class="st2"/><path d="M158.3 79.6l-44.4-6.4s-11-.8-10.1 13.8 2.3 73.7 2.3 73.7l4.1 153.9s1.4 8.4 5.2 11.9 9.1 6.4 15.3 4.9 20.6-9.1 22.4-10 10.3-5.4 13.4-8.8c3.1-3.6 5.4-7.7 6.9-12.3 1.7-4.9 13.3-45.6 13.3-45.6s2.5-7.2 4.2-11.1 39.9-70 39.9-70 3.8-4.6 1.1-7.7-11.7-11-11.7-11l-36.4-35.8s-6.7-7.7-9.2-11.8-5.6-14.8-5.6-14.8-2.6-11.8-10.7-12.9z" class="st3"/><path d="M436.5 241.8c-.4 0-.8-.3-.9-.7l-2.6-9.6c-.1-.2 0-.5.1-.7.1-.2.3-.4.6-.4l4.1-1.1h.3c.4 0 .8.3.9.7l2.6 9.6c.1.5-.2 1-.7 1.2l-4.1 1.1c-.2-.1-.3-.1-.3-.1z" class="st4"/><path d="M438 229.4c.3 0 .6.2.7.5l2.6 9.6c.1.4-.1.8-.5.9l-4.1 1.1h-.2c-.3 0-.6-.2-.7-.5l-2.6-9.6c-.1-.4.1-.8.5-.9l4.1-1.1h.2m0-.5h-.3l-4.1 1.1c-.3.1-.6.3-.7.6-.2.3-.2.6-.1.9l2.6 9.6c.1.5.6.9 1.1.9h.3l4.1-1.1c.3-.1.6-.3.7-.6.2-.3.2-.6.1-.9l-2.6-9.6c-.1-.5-.5-.8-1.1-.9z" class="st5"/><path d="M462.8 336.6c-.4 0-.8-.3-.9-.7l-2.6-9.6c-.1-.5.2-1 .7-1.2l4.1-1.1h.2c.4 0 .8.3.9.7l2.6 9.6c.1.5-.2 1-.7 1.2l-4.1 1.1h-.2z" class="st4"/><path d="M464.4 324.3c.3 0 .6.2.7.5l2.6 9.6c.1.4-.1.8-.5.9l-4.1 1.1h-.2c-.3 0-.6-.2-.7-.5l-2.6-9.6c-.1-.4.1-.8.5-.9l4.1-1.1h.2m0-.5h-.3l-4.1 1.1c-.6.2-1 .8-.9 1.5l2.6 9.6c.1.5.6.9 1.2.9h.3l4.1-1.1c.6-.2 1-.8.9-1.5l-2.6-9.6c-.2-.6-.7-.9-1.2-.9z" class="st5"/><path d="M457.8 317.9c-.4 0-.8-.3-.9-.7l-2.6-9.6c-.1-.2 0-.5.1-.7.1-.2.3-.4.6-.4l4.1-1.1h.2c.4 0 .8.3.9.7l2.6 9.6c.1.5-.2 1-.7 1.2L458 318c0-.1-.1-.1-.2-.1z" class="st4"/><path d="M459.4 305.6c.3 0 .6.2.7.5l2.6 9.6c.1.4-.1.8-.5.9l-4.1 1.1h-.2c-.3 0-.6-.2-.7-.5l-2.6-9.6c-.1-.4.1-.8.5-.9l4.1-1.1h.2m0-.5h-.3l-4.1 1.1c-.3.1-.6.3-.7.6-.2.3-.2.6-.1.9l2.6 9.6c.1.5.6.9 1.2.9h.3l4.1-1c.6-.2 1-.8.8-1.5l-2.6-9.6c-.2-.6-.7-1-1.2-1z" class="st5"/><path d="M465.3 269.5c-.4 0-.8-.3-.9-.7l-2.6-9.6c-.1-.5.2-1 .7-1.2l4.1-1.1h.3c.4 0 .8.3.9.7l2.6 9.6c.1.5-.2 1-.7 1.2l-4.1 1.1h-.3z" class="st4"/><path d="M466.9 257.2c.3 0 .6.2.7.5l2.6 9.6c.1.4-.1.7-.5.8l-4.1 1.1h-.2c-.3 0-.6-.2-.7-.5l-2.6-9.6c-.1-.4.1-.8.5-.9l4.1-1.1c0 .1.1.1.2.1m0-.5h-.3l-4.1 1.1c-.6.2-1 .8-.9 1.5l2.6 9.6c.1.5.6.9 1.2.9h.3l4.1-1.1c.6-.2 1-.8.9-1.5l-2.6-9.6c-.2-.6-.7-.9-1.2-.9z" class="st5"/><path d="M482 259.2c-.4 0-.8-.3-.9-.7l-2.6-9.6c-.1-.5.2-1 .7-1.2l4.1-1.1h.2c.4 0 .8.3.9.7l2.6 9.6c.1.5-.2 1-.7 1.2l-4.1 1.1h-.2z" class="st4"/><path d="M483.6 246.8c.3 0 .6.2.7.5l2.6 9.6c.1.4-.1.7-.5.8l-4.1 1.1h-.3c-.3 0-.6-.2-.7-.5l-2.6-9.6c-.1-.4.1-.8.5-.9l4.1-1.1c.1.1.2.1.3.1m0-.5h-.3l-4.1 1.1c-.6.2-1 .8-.9 1.5l2.6 9.6c.1.5.6.9 1.2.9h.3l4.1-1.1c.6-.2 1-.8.8-1.5l-2.6-9.6c-.1-.5-.6-.9-1.1-.9z" class="st5"/><path d="M517.3 313.3c-.4 0-.8-.3-.9-.7l-2.6-9.6c-.1-.2 0-.5.1-.7.1-.2.3-.4.6-.4l4.1-1.1h.2c.4 0 .8.3.9.7l2.6 9.6c.1.5-.2 1-.7 1.2l-4.1 1.1c-.1-.1-.2-.1-.2-.1z" class="st4"/><path d="M518.9 300.9c.3 0 .6.2.7.5l2.6 9.6c.1.4-.1.8-.5.9l-4.1 1.1h-.2c-.3 0-.6-.2-.7-.5l-2.6-9.6c-.1-.4.1-.8.5-.9l4.1-1.1h.2m0-.5h-.3l-4.1 1.1c-.6.2-1 .8-.9 1.5l2.6 9.6c.1.5.6.9 1.2.9h.3l4.1-1.1c.6-.2 1-.8.8-1.5l-2.6-9.6c-.1-.5-.6-.8-1.1-.9z" class="st5"/><path d="M504.6 342.1c-.4 0-.8-.3-.9-.7l-2.6-9.6c-.1-.2 0-.5.1-.7.1-.2.3-.4.6-.5l4.1-1.1h.3c.4 0 .8.3.9.7l2.6 9.6c.1.5-.2 1-.7 1.2l-4.1 1.1h-.3z" class="st4"/><path d="M506.1 329.8c.3 0 .6.2.7.5l2.6 9.6c.1.4-.1.8-.5.9l-4.1 1.1h-.2c-.3 0-.6-.2-.7-.5l-2.6-9.6c-.1-.4.1-.8.5-.9l4.1-1.1h.2m0-.5h-.3l-4.1 1.1c-.6.2-1 .8-.9 1.5l2.6 9.6c.1.5.6.9 1.2.9h.3l4.1-1.1c.3-.1.6-.3.7-.5.2-.3.2-.6.1-.9l-2.6-9.6c-.1-.7-.6-1-1.1-1z" class="st5"/><path d="M428.8 287.8c-.4 0-.8-.3-.9-.7l-2.6-9.6c-.1-.5.2-1 .7-1.2l4.1-1.1h.3c.4 0 .8.3.9.7l2.6 9.6c.1.2 0 .5-.1.7-.1.2-.3.4-.6.4l-4.1 1.1c-.2.1-.3.1-.3.1z" class="st4"/><path d="M430.3 275.4c.3 0 .6.2.7.5l2.6 9.6c.1.4-.1.8-.5.9l-4.1 1.1h-.2c-.3 0-.6-.2-.7-.5l-2.6-9.6c-.1-.4.1-.8.5-.9l4.1-1.1h.2m0-.4h-.3l-4.1 1.1c-.6.2-1 .8-.9 1.5l2.6 9.6c.1.5.6.9 1.1.9h.3l4.1-1.1c.3-.1.6-.3.7-.6.2-.3.2-.6.1-.9l-2.6-9.6c0-.6-.5-.9-1-.9z" class="st5"/><path d="M426.8 382.4c-.4 0-.8-.3-.9-.7l-2.6-9.6c-.1-.2 0-.5.1-.7.1-.2.3-.4.6-.4l4.1-1.1h.2c.4 0 .8.3.9.7l2.6 9.6c.1.2 0 .5-.1.7-.1.2-.3.4-.6.4l-4.1 1.1h-.2z" class="st4"/><path d="M428.3 370.1c.3 0 .6.2.7.5l2.6 9.6c.1.4-.1.8-.5.9l-4.1 1.1h-.2c-.3 0-.6-.2-.7-.5l-2.6-9.6c-.1-.4.1-.8.5-.9l4.1-1.1h.2m0-.5h-.3l-4.1 1.1c-.3.1-.6.3-.7.6-.2.3-.2.6-.1.9l2.6 9.6c.1.5.6.9 1.2.9h.3l4.1-1.1c.3-.1.6-.3.7-.6.2-.3.2-.6.1-.9l-2.6-9.6c-.2-.6-.6-.9-1.2-.9z" class="st5"/><path d="M462 373.9c-.4 0-.8-.3-.9-.7l-2.6-9.6c-.1-.2 0-.5.1-.7.1-.2.3-.4.6-.4l4.1-1.1h.3c.4 0 .8.3.9.7l2.6 9.6c.1.5-.2 1-.7 1.2l-4.1 1.1-.3-.1z" class="st4"/><path d="M463.5 361.5c.3 0 .6.2.7.5l2.6 9.6c.1.4-.1.8-.5.9l-4.1 1.1h-.2c-.3 0-.6-.2-.7-.5l-2.6-9.6c-.1-.4.1-.8.5-.9l4.1-1.1h.2m0-.5h-.3l-4.1 1.1c-.3.1-.6.3-.7.6-.2.3-.2.6-.1.9l2.6 9.6c.1.5.6.9 1.2.9h.3l4.1-1.1c.6-.2 1-.8.9-1.5l-2.6-9.6c-.3-.5-.7-.9-1.3-.9z" class="st5"/><path d="M231.8 165.8l13-1.4 18.3 2 10.6 4 15.4 11.4 33.6 29.2s15.6 13.2 17.1 14.5 11.1 8.8 11.1 8.8l40.7 26.7 5.5 2s7.1 2 10.2-1.4c3.1-3.4 2.7-5.1 3.6-9.6s2.8-37.5 2.8-37.5l24.6-270.1 21.3-222.9" class="st3"/><text class="st6 st7 st8" transform="translate(59 65.83)">1</text><text class="st6 st7 st8" transform="translate(136.1 118.79)">3</text><text class="st6 st7 st8" transform="translate(59 118.55)">2</text><text class="st6 st7 st8" transform="translate(59 194.44)">4</text><text class="st6 st7 st8" transform="translate(87.15 241.21)">6</text><text class="st6 st7 st8" transform="translate(87.15 301.86)">8</text><text class="st6 st7 st8" transform="translate(136.1 180.83)">5</text><text class="st6 st7 st8" transform="translate(136.1 239.99)">7</text><text class="st6 st7 st8" transform="translate(136.1 300.75)">9</text><path d="M115.3 366.9l3.4-6.2c.6-1.1 1.6-1.9 2.8-2.1l14.5-3.1c.4-.1.9-.2 1.3-.5l45.6-27.9c.9-.6 1.6-1.4 1.9-2.5l19.9-69.7.3-.9 43.3-80c.8-1.5 2.4-2.3 4.1-2.2l8.9.7c.4 0 .8.1 1.2.3l7.9 3.1c.4.2.8.4 1.1.7l13 10.8 59.9 51c.1.1.3.2.4.3l33.9 22.1 14.1 8.3c.8.5 1.4 1.1 1.7 2l4.6 10.3c.3.7.4 1.4.4 2.1l-2.5 29.3c0 .4 0 .9.1 1.3l12 54c.5 2.3-.9 4.6-3.2 5.1-.3.1-.6.1-.9.1H119c-2.3 0-4.2-1.9-4.2-4.3-.1-.7.1-1.4.5-2.1z" class="st9"/><path d="M181.8 75.3l1.3 1.6c.2.3.4.6.5.9l13 27.7c.2.4.4.7.7 1 4.5 5.1 44.4 50.3 46.3 49.1s23.1-.3 28.5 0c.8 0 1.6.3 2.2.7l35.8 24.4.4.3 35.1 29.9 33 27.3 13.9 12.2c1.4 1.2 3.4 1.4 5 .5l2.8-1.7c1.2-.7 2-1.9 2.1-3.3L412.7 122c.2-2.1-1.3-4.1-3.4-4.5l-223.2-49c-2.3-.5-4.6.9-5.1 3.3-.3 1.1 0 2.5.8 3.5z" class="st9"/><path d="M432.1 430.2v-.2c-.2-.8-19.2-75.9-28.8-117.5-.4-1.8-.6-3.7-.4-5.5 1.2-14.3 1.9-22.1 2.1-23.9.6-5.9-4.3-14.4-8.8-17.8-.3-.3-2-1.3-2-1.3-7-2.6-25.6-15.9-26.7-16.9l-18.1-12-43.4-36.6-17.2-15.3-16-11.4-10.4-4.1c-.1 0-14.8-1.5-18.6-1.5h-.6c-1.5.2-5.2.8-7.3 3.4-1.9 2.3-3.5 4.7-3.5 4.7l-39.7 69.8-4.1 10.9c-.1.3-10 34.6-13.3 45.5-2.1 7.1-6.6 13.2-12.8 17.3h-.1c-2.6 1.3-25.4 12.9-31 14.8-1.2.4-2.5.7-3.8.6-5.4 0-10.2-3.6-13.1-5.8-4.4-3.3-5.8-12.1-5.9-13.1v-.2c0-.5-.3-11.7-.8-28.9l-27.9.9-.1-3.5 27.9-.9-1.6-57.1-62.8.5v-3.5l62.7-.5c-.5-19.6-1.1-40.1-1.6-59.1-15.7.1-58.7.2-62.2.2h-.4v-.3l.1-1.5v-1.8h1.4c5 0 25.3-.1 60.3-.2h.8c-1.1-41.4-1.8-65.9-2.1-73L22 82l.2-3.5 80.1 3.4c.2-3.6 1.4-6.4 3.5-8.3 2.1-1.8 4.7-2.7 7.4-2.7.4 0 .8 0 1.2.1l44.4 6.4c8.7 1.2 11.8 12.8 12.2 14.1l5.3 14.5 9 11.4c.4.4 41.8 44.1 46.9 45 1.9.3 3.8.4 5.8.4 1.8 0 3.5-.1 5.3-.3l20.2 1.6 11.4 4.5 16.4 11.7 17.3 15.3 43.2 36.5 18.2 12c.2.2 16.9 14.6 28.6 17.1.9.2 1.9.3 2.9.3 1.6.1 3.2-.4 4.5-1.4 2.9-2.3 3.1-6.7 3.1-6.9l2.8-35 2.9-33.2 43.3-464.3 3.5.3-43.3 464.4-2.1 24.8c11 4.7 77.6 32.7 116.5 49l2.8 1.2-1.4 3.2-13-5.5c4.4 15.6 25.8 94 30.1 109.7l.1.5-1.5.4-.1-.2c-.3-1-26.8-98.1-30.5-111.1l-21.8-9.1c4.1 14.5 25.8 93.7 30.3 110.2l6.5-1.7.9 3.4-109.7 28.2c5.7 23.1 10.2 41.2 10.3 41.4l.1.3-3.7.1zm-19.9-176.1s0 .4-.4 3.4c-.9 6.4-2.9 21.4-3.3 26.2-.2 1.8-.8 9.4-2 23.2-.2 1.9 0 3.7.4 5.5 4 17.3 9.9 41.9 17.6 73.1l25.8-6.6c-3.4-12.4-30.2-109.4-37.2-134.4l-.9 9.6zm2.8-35l-1.7 21.2c4.5 15.5 32.5 117.3 38.3 138.2l17.7-4.5c-4.3-15.4-38.5-139.4-43-155l-10.9-4.6-.4 4.7zm13.1.6c5.7 20.1 38.6 139 42.7 153.9l17.8-4.6c-6-22-35.3-128.6-38.6-140.1l-21.9-9.2zm23.5 9.9c5 17.6 36.2 131.4 38.3 139l17-4.4c-5.5-20.1-32-116.7-34.7-126l-20.6-8.6zm22.4 9.5c4.3 15 31 112.5 34.4 124.9l17.6-4.5c-3.1-11.4-27.6-100.7-30.6-111.4l-21.4-9zm-362.1 75.3c.3 2.3 1.8 8.6 4.5 10.7 3.3 2.5 7.1 5.1 11 5.1.9 0 1.8-.2 2.7-.5 5.4-1.9 29.5-14.1 30.5-14.6 5.3-3.7 9.2-9.1 11.1-15.3 1.4-4.7 4.1-14 8.1-27.8l-69.1 1 1.2 41.4zm-1.2-44.8l70.2-1.1c2.3-7.9 4.1-14.1 4.1-14.3v-.1l4.3-11.3 20.7-36.4-101 2.1 1.7 61.1zm-1.8-64.5L212 203l17.6-30.8c.5-.9 1.8-3.1.9-4.7-1.1-1.6-2.4-3-3.9-4.3l-.6-.6-14.3-13.9-104.4 2.4c.6 17 1.1 35.6 1.6 54zm4-130.2c-1.9-.1-3.7.6-5.1 1.8-1.7 1.5-2.4 4-2.3 7.5l1.8 63.6 101-2.3-26.1-25.3-9.4-12-5.6-15.3c0-.1-2.6-10.6-9.3-11.6l-44.4-6.4c.1-.1-.2-.1-.6 0z" class="st4"/><path fill="#ededed" d="M457.9-278.5l3 .3-43.3 464.1-2.2 24.9c13.2 5.6 118.2 49.7 119.3 50.2l-.6 1.4-.6 1.4-13.3-5.6c4.4 15.3 29.2 106.3 30.4 110.5l-1 .3c-.3-1-27-98.7-30.6-111.2l-22.4-9.4c3.8 13.4 27 98.1 30.5 111l6.5-1.7.7 2.9-109.6 28.1c5.8 23.5 10.3 41.6 10.3 41.6l-3-.3s-19-75.4-28.8-117.5c-.4-1.8-.5-3.6-.4-5.4a3483 3483 0 012.1-23.9c.6-6.3-4.5-14.7-8.9-18-.4-.3-2.1-1.3-2.1-1.3-6.9-2.5-25.3-15.7-26.6-16.8l-18.2-12-43.1-36.5-17.2-15.3-16-11.5-10.5-4.1s-14.8-1.5-18.7-1.5h-.7c-2.3.3-5.6 1.2-7.5 3.6s-3.5 4.7-3.5 4.7l-39.7 69.8-4.1 10.9c-.5 1.6-10 34.7-13.3 45.6-2.1 7-6.6 13.1-12.6 17.2h-.1c-1 .5-25.2 12.8-30.9 14.8-1.2.4-2.5.6-3.7.6-5.3 0-10.1-3.6-13-5.8-4.3-3.3-5.7-12-5.8-12.9v-.2c0-.5-.3-11.8-.8-29.2l-27.9.9-.1-3 27.9-.9c-.4-15.8-1-36.1-1.6-57.6l-62.8.5v-3l62.7-.5c-.5-19.8-1.1-40.5-1.6-59.7-15.9.1-59 .2-62.4.2h-.2l.1-1.5v-1.5h1.1c7.8 0 52.2-.2 61.3-.3-1-35.8-1.8-65.8-2.1-73.5L22 82.2l.1-3 80.1 3.4c.1-3.7 1.3-6.5 3.4-8.4 2-1.7 4.6-2.6 7.3-2.6.4 0 .8 0 1.1.1l44.4 6.4c8.6 1.2 11.7 12.7 12 13.9l5.3 14.5 9 11.5s41.8 44.2 47.1 45.1c1.9.3 3.9.4 5.8.4 1.8 0 3.5-.1 5.3-.3l20.1 1.6 11.4 4.5 16.4 11.8 17.3 15.3 43.2 36.4 18.2 12c.2.1 16.9 14.6 28.7 17.1 1 .2 1.9.3 2.9.3 1.7.1 3.3-.4 4.7-1.4 3-2.4 3.2-7 3.2-7l2.8-35 2.9-33.2 43.2-464.1M107.1 148l101.8-2.3-26.5-25.7-9.4-11.9-5.5-15.3c0-.1-2.7-10.8-9.5-11.8l-44.4-6.4h-.7c-1.9-.1-3.8.6-5.3 1.8-1.7 1.6-2.5 4.2-2.4 7.7.2 4.1.9 30.4 1.9 63.9m1.5 57.3l103.5-2.1 17.5-30.7c.4-.8 2.1-3.3 1-5.1s-3.9-4.2-4.5-4.8l-14.3-13.9-104.7 2.3c.5 17 1 35.8 1.5 54.3m1.8 64.6l70.6-1.1c2.3-8 4.1-14.3 4.2-14.5v-.1l4.3-11.3 20.9-36.7-101.7 2.1 1.7 61.6m341 108.9l18.1-4.6c-4-14.5-38.7-140.2-43.1-155.4l-11.3-4.8-.4 5.1-1.7 21.1c4.6 16.3 34.8 125.7 38.4 138.6m19.1-4.9l18.3-4.7c-3.5-12.9-35.4-129.1-38.8-140.5l-22.4-9.4c5.2 18.4 38.7 139.6 42.9 154.6m19.2-4.9l17.6-4.5c-3.5-12.9-32.2-117.5-34.8-126.4l-21.2-8.9c4.4 15.4 34.8 126.4 38.4 139.8m18.6-4.8l18.1-4.7c-3.5-12.8-27.8-101.6-30.7-111.7l-22-9.2c3.7 13.2 31 112.4 34.6 125.6m-84.1 21.6l26.3-6.8c-3.2-11.7-31.2-113.2-37.7-136l-.9 10.9c0 .2-3.1 23.3-3.8 29.5-.2 1.9-1 10.8-2 23.2-.2 1.9 0 3.8.4 5.6 4.9 21 11.8 49.7 17.7 73.6m-296.8-55.4c.9 0 1.9-.2 2.8-.5 5.4-1.9 29.2-13.9 30.5-14.6 5.4-3.7 9.4-9.2 11.3-15.4 1.7-5.8 5.3-17.8 8.2-28.1l-69.7 1.1c.6 23.6 1.1 40.1 1.1 41.5.4 2.4 1.8 8.8 4.6 10.9 3.4 2.5 7.3 5.1 11.2 5.1M457.5-279v.5l-43.3 464.1-2.9 33.2-2.8 35c0 .2-.2 4.5-3 6.7-1.3.9-2.8 1.4-4.4 1.3-1 0-1.9-.1-2.8-.3-11.6-2.5-28.3-16.9-28.4-17l-18.2-12-43.3-36.5-17.2-15.3-16.4-11.7-11.5-4.7h-.2l-20.1-1.6h-.1c-1.7.2-3.5.3-5.3.3-1.9 0-3.8-.1-5.7-.4-4.2-.7-35.2-32.6-46.8-44.9l-8.9-11.4-5.2-14.4c-.4-1.5-3.6-13-12.4-14.3l-44.4-6.4c-.4 0-.8-.1-1.2-.1-2.8 0-5.5.9-7.6 2.7-2.1 1.9-3.3 4.7-3.5 8.3l-79.7-3.4h-.5v.5l-.1 3v.5h.4l79.8 3.3c.2 7.4.9 31.7 2 72.5-9.9.1-53.2.3-60.8.3h-1.6v2l-.1 1.5v.5h.7c3.8 0 54-.2 61.9-.2.5 18.9 1.1 39.2 1.6 58.6l-62.2.5h-.5v4h.5l62.3-.5c.6 21.1 1.1 41 1.6 56.7l-27.4.9h-.5v.5l.1 3v.5h.6l27.4-.9.8 28.7v.2c.1 1 1.5 9.9 6 13.3 2.9 2.2 7.8 5.9 13.3 5.9 1.3 0 2.6-.2 3.9-.7 5.6-2 28.4-13.5 31-14.8l.1-.1c6.2-4.2 10.7-10.3 12.8-17.4 3.3-11 13.2-45.2 13.3-45.6l4.1-10.8 39.7-69.7s1.6-2.4 3.5-4.7c2.1-2.6 6-3.2 7.1-3.4h.6c3.7 0 17.5 1.4 18.6 1.5l10.3 4.1 16 11.4 17.2 15.2 43.3 36.6 18.1 12c1.3 1.1 19.7 14.3 26.7 16.9.5.3 1.7 1 2 1.2 4.5 3.3 9.3 11.7 8.7 17.5-.2 1.8-.9 9.8-2.1 23.9-.2 1.9 0 3.7.4 5.6 9.6 41.6 28.6 116.7 28.8 117.5l.1.3h.4l3 .3.7.1-.2-.7c0-.2-4.5-18.1-10.2-41.1l109.2-28 .5-.1-.1-.5-.7-2.9-.1-.5-.5.1-6 1.5c-6.2-22.8-25.8-94.4-30.1-109.5l21.2 8.9c3.8 13.4 30.2 110 30.5 111l.1.5.5-.1 1-.3.5-.1-.1-.5-.2-.6c-4.2-15.5-25.2-92.3-29.9-108.9l12.3 5.2.5.2.2-.5.6-1.4.6-1.4.2-.5-.5-.2-2.1-.9c-31.3-13.1-104.8-44-116.8-49.1l2.1-24.6 43.2-464.1v-.5h-.5l-3-.3h-.5zM107.6 147.5l-1.8-63.4c-.1-3.4.6-5.8 2.2-7.3a7.1 7.1 0 015-1.7h.7l44.4 6.4c6.5.9 9.1 11.3 9.1 11.4v.1l5.5 15.2v.1l.1.1 9.4 11.9 25.6 24.8-100.2 2.4zm.1 4l104-2.4 14.2 13.8.6.5c1.5 1.2 2.7 2.6 3.8 4.2.9 1.5-.4 3.5-.9 4.4l-.1.2-17.4 30.4-102.7 2.1c-.6-18.1-1.1-36.5-1.5-53.2zm1.6 57.3l100.3-2.1-20.5 35.9-4.3 11.4v.1c0 .2-1.8 6.3-4.1 14.1l-69.8 1.1c-.4-17.6-1-38.8-1.6-60.5zm304.3 31.4l1.7-21.1.4-4.4 10.5 4.4c4.7 16.3 40 144.2 42.9 154.6l-17.2 4.4c-6-21.3-33.8-122-38.3-137.9zm57.3 133.1c-8.8-31.9-36.8-133.3-42.5-153.1l21.2 8.9c3.6 12.5 34.4 124.5 38.5 139.8l-17.2 4.4zm19.2-5C484.2 346.9 457 247.8 452 230l20 8.4c3 10.2 30.8 111.6 34.6 125.6l-16.5 4.3zm18.5-4.7c-3.6-13.2-29.5-107.7-34.2-124.1l20.8 8.7c3.2 11.1 27.2 98.6 30.5 111l-17.1 4.4zm-84.1 21.6c-7.7-31.1-13.6-55.6-17.5-72.9-.4-1.8-.5-3.6-.4-5.5 1.2-13.6 1.9-21.4 2-23.2.5-4.8 2.5-19.8 3.3-26.2l.5-3.4.7-8.1c7.6 26.9 33.2 119.6 36.8 132.8l-25.4 6.5zM111 273.3l68.5-1c-2.8 9.5-6.3 21.7-8.1 27.4-1.9 6.1-5.8 11.5-11.1 15.1-1 .5-25 12.7-30.4 14.6-.8.3-1.7.4-2.6.4-3.8 0-7.6-2.6-10.9-5.1-2.6-2-4.1-8.2-4.4-10.5v-.2l-1-40.7z"/><path d="M431.5 127.9l-6.7 74.3c-.2 1.8.9 3.6 2.6 4.3l90.1 37.9c2.2.9 4.7-.1 5.6-2.3.2-.5.3-1.1.3-1.7v-90.8c0-1.9-1.3-3.6-3.2-4.1l-83.5-21.3c-2.3-.6-4.6.8-5.2 3.1v.6z" class="st9"/></g></g></g></svg>